<svg xmlns="http://www.w3.org/2000/svg" width="154.771" height="74.834"><path fill="none" d="M55.868498 19.978c-9.46704-.0247-14.90747 4.34319-14.782 14.783v16.131c-.0276 12.26311 6.37812 15.3432 14.782 14.799h43.021c11.83797.74031 15.12468-5.54363 14.794-14.799V34.761c.45076-11.53296-5.67834-14.99064-14.794-14.783zm35.031 26.342h-9.549v10.299h-6.365V46.32h-9.51v-6.031h9.51V30.156h6.365v10.133h9.549zm-23.544-33.589h20.164c2.721 0 4.935 2.211 4.935 4.932h3.581c0-4.699-3.819-8.521-8.516-8.521h-20.164c-4.693 0-8.519 3.821-8.519 8.521h3.586c0-2.721 2.215-4.932 4.933-4.932z" stroke="#fff" stroke-width="1.75" style="stroke:#ffffff;stroke-opacity:1"/></svg>