<?xml version="1.0" encoding="utf-8"?>
<!-- Generator: Adobe Illustrator 21.1.0, SVG Export Plug-In . SVG Version: 6.00 Build 0)  -->
<svg version="1.1"
	 id="svg2" inkscape:version="0.91 r13725" sodipodi:docname="icon-bus--blue.svg" xmlns:cc="http://creativecommons.org/ns#" xmlns:dc="http://purl.org/dc/elements/1.1/" xmlns:inkscape="http://www.inkscape.org/namespaces/inkscape" xmlns:rdf="http://www.w3.org/1999/02/22-rdf-syntax-ns#" xmlns:sodipodi="http://sodipodi.sourceforge.net/DTD/sodipodi-0.dtd" xmlns:svg="http://www.w3.org/2000/svg"
	 xmlns="http://www.w3.org/2000/svg" xmlns:xlink="http://www.w3.org/1999/xlink" x="0px" y="0px" viewBox="0 0 154.8 74.8"
	 style="enable-background:new 0 0 154.8 74.8;" xml:space="preserve">
<style type="text/css">
	.st0{fill:none;stroke:#FFFFFF;stroke-width:1.75;}
</style>
<sodipodi:namedview  bordercolor="#666666" borderopacity="1" gridtolerance="10" guidetolerance="10" id="namedview6" inkscape:current-layer="svg2" inkscape:cx="77.385498" inkscape:cy="37.417" inkscape:pageopacity="0" inkscape:pageshadow="2" inkscape:window-height="837" inkscape:window-maximized="1" inkscape:window-width="1440" inkscape:window-x="-8" inkscape:window-y="-8" inkscape:zoom="2.4487792" objecttolerance="10" pagecolor="#ffffff" showgrid="false">
	</sodipodi:namedview>
<path id="path4" class="st0" d="M121.5,13.5c3.5,1.2,6.3,4.7,8.1,10.3c2.4,7.1,3,24.6,1,29.7l-0.4,1h-7.8l-0.6-2.2
	c-2.5-9-14.4-8.5-16.7,0.6l-0.4,1.5H51.6v-1c0-5.2-7.6-9.4-12.2-6.8c-2.3,1.3-4.6,4.3-4.6,6c0,1.2-0.4,1.8-1.3,1.8
	c-0.7,0-0.9-0.2-0.9-1c0-0.9-0.2-1.1-1.5-1.6c-2.8-1.1-5.9-3.4-7-5.4l-1.1-1.8v-13c0-16.1,0.2-17.1,3.9-18.3
	C29.2,12.4,119.2,12.7,121.5,13.5 M97.3,15.9c-0.8,0.2-1.3,11.4-0.5,12.6c0.2,0.4,2.6,0.4,10.5,0.4l10.2-0.1l0.1-6.1
	c0.1-3.3,0-6.3-0.1-6.5C117.3,15.7,99,15.5,97.3,15.9 M75,16c-0.3,0.2-0.4,1.8-0.4,6.5l0.1,6.3l10,0.1l10,0.1V15.7l-9.6,0
	C79.8,15.7,75.3,15.8,75,16 M51.8,22.3v6.5h20.8l0.1-6.1c0.1-3.3,0-6.3-0.1-6.6c-0.1-0.4-2.3-0.4-10.5-0.4l-10.3,0.1V22.3
	 M32.3,16.2c-1.4,0.4-1.7,0.6-2,1.7c-0.5,1.4-0.6,6.7-0.2,6.9c0.2,0.2,6.5,1.5,11,2.4c0.8,0.2,2.4,0.5,3.6,0.7
	c1.2,0.2,2.8,0.5,3.6,0.5l1.4,0l0.1-5.7c0.1-7.8,0.9-7.1-8.3-7C36.9,15.8,33.2,15.9,32.3,16.2 M120.6,27.4
	c-0.1,14.3,0.1,14.9,5.6,15l2.7,0l0.1-1.8c0.6-8.2-2.3-19.3-5.9-22.9C120.7,15.3,120.7,15.3,120.6,27.4 M25.8,39.8
	c0,2.6,0.1,2.8,0.7,2.8c1.3,0,1.7-5,0.5-5.7C26,36.4,25.8,36.8,25.8,39.8 M115.8,47.4c5.7,1.8,6.7,10.3,1.6,13.5
	c-7.4,4.7-15.2-5.4-9-11.6C110.6,47.1,113.1,46.5,115.8,47.4 M46.3,47.9c7.1,3.5,4.6,14.1-3.4,14.1c-6.5,0-9.6-8.7-4.5-13
	C41,46.7,43.3,46.4,46.3,47.9 M125.7,49.2c0,1.8,2.4,2.5,2.8,0.8c0.6-2.1,0.3-2.5-1.3-2.4C125.7,47.8,125.7,47.8,125.7,49.2
	 M115.9,51.3c2.2,1.9,2.3,4.6,0.2,6.4c-3.4,2.9-8.5-1.6-5.9-5.2C111.8,50.3,114.1,49.8,115.9,51.3 M44.7,50.9
	c1.2,0.5,2.3,2.3,2.3,3.8c0,3.5-3.9,5.2-6.5,2.8C37.3,54.4,40.6,49.2,44.7,50.9 M111.8,52.3c-2.1,1.6-0.9,5.1,1.7,5.1
	c1.8,0,2.7-1,2.7-2.9c0-1.7-1.2-3-2.7-3C113.1,51.6,112.3,51.9,111.8,52.3 M41,52.5c-1.6,1.6-0.8,4.5,1.4,5.1
	c2.1,0.5,4.1-1.7,3.4-3.9C45.1,51.5,42.6,50.9,41,52.5"/>
</svg>
