<?xml version="1.0" encoding="utf-8"?><!DOCTYPE svg PUBLIC "-//W3C//DTD SVG 1.1//EN" "http://www.w3.org/Graphics/SVG/1.1/DTD/svg11.dtd"><svg version="1.1" id="Layer_1" xmlns="http://www.w3.org/2000/svg" xmlns:xlink="http://www.w3.org/1999/xlink" x="0px" y="0px" width="154.771px" height="74.834px" viewBox="0 0 154.771 74.834" enable-background="new 0 0 154.771 74.834" xml:space="preserve"><g><path fill="#FFFFFF" d="M47.417,57.13c-4.423,0-8.161-2.989-9.3-7.053c-0.234,0.627-0.575,1.024-1.193,1.024c-0.048,0-0.131-0.007-0.179-0.015c-0.373-0.062-8.723-2.33-10.21-4.024c-1.404-1.598-2.559-7.066-2.64-8.243l-0.042-0.52c-0.115-1.362-0.289-3.42,0.347-5.028c0.548-1.383,3.808-2.014,11.395-2.989c1.616-0.208,3.286-0.422,3.628-0.544c0.491-0.198,2.955-2.089,5.128-3.757c4.81-3.692,8.621-6.561,10.28-7.122c2.875-0.972,6.12-1.146,6.256-1.154l21.512-0.001c0.002,0,0.004,0,0.006,0c0.729,0,4.049,0.041,6.277,0.803c2.045,0.7,5.477,3.871,5.861,4.23l8.282,7.092c1.443,0.04,7.411,0.234,11.321,0.79c2.251,0.319,4.604,0.631,6.741,0.915c3.403,0.451,6.092,0.807,7.222,1.037c1.882,0.382,4.228,1.366,4.326,1.408c0.323,0.136,0.534,0.452,0.535,0.803c0.001,0.402,0.003,3.971-0.399,5.353c-0.305,1.051-5.004,9.008-6.229,9.331c-0.491,0.129-1.708,0.136-1.949,0.136c-0.001,0-0.001,0-0.001,0c-3.047,0-3.646-0.545-3.843-0.724c-0.069-0.063-0.134-0.13-0.194-0.2c-0.596,4.758-4.666,8.45-9.582,8.45c-4.391,0-8.106-2.945-9.275-6.964c-0.009,0.163-0.015,0.327-0.019,0.49c-0.012,0.475-0.4,0.854-0.875,0.854H56.182C54.616,54.898,51.181,57.13,47.417,57.13z M39.124,43.726c0.166,0,0.332,0.047,0.478,0.142c0.336,0.22,0.48,0.64,0.35,1.019c-0.293,0.849-0.441,1.719-0.441,2.586c0,4.36,3.547,7.908,7.907,7.908c3.281,0,6.257-2.071,7.406-5.155c0.095-0.254,0.302-0.45,0.562-0.53c0.225-0.07,0.466-0.045,0.671,0.064h43.712c0.128-2.151,0.604-5.011,2.211-5.325c0.301-0.087,0.66-0.018,0.886,0.203c0.226,0.219,0.348,0.533,0.269,0.838c-0.176,0.677-0.265,1.348-0.265,1.997c0,4.36,3.547,7.907,7.907,7.907s7.907-3.547,7.907-7.907c0-2.331-1.025-4.533-2.813-6.043c-0.34-0.287-0.41-0.784-0.163-1.154c0.246-0.37,0.729-0.497,1.128-0.293c0.993,0.511,3.348,2.281,3.871,4.212c0.147,0.544,0.262,1.04,0.364,1.487c0.21,0.919,0.376,1.645,0.661,1.904c0.154,0.086,1.055,0.268,2.664,0.268l0,0c0.672,0,1.139-0.032,1.368-0.058c0.93-0.964,4.771-6.904,5.132-8.147c0.237-0.819,0.312-3,0.326-4.271c-0.777-0.303-2.255-0.845-3.457-1.09c-1.071-0.218-3.866-0.588-7.104-1.017c-2.141-0.284-4.5-0.597-6.757-0.917c-4.276-0.608-11.357-0.779-11.429-0.781c-0.201-0.004-0.396-0.079-0.549-0.21l-8.547-7.319c-0.997-0.93-3.827-3.387-5.261-3.877c-2.015-0.689-5.28-0.709-5.646-0.709H60.933c0.014,0-3.1,0.17-5.74,1.063c-1.516,0.513-6.29,4.176-9.775,6.852c-3.491,2.679-4.976,3.792-5.608,4.018c-0.497,0.176-1.71,0.337-3.991,0.63c-2.738,0.352-9.104,1.17-10.018,1.969c-0.452,1.223-0.302,2.989-0.203,4.166l0.044,0.546c0.081,1.176,1.229,6.094,2.208,7.209c0.814,0.927,6.775,2.844,8.702,3.342c0.09-0.328,0.186-0.814,0.262-1.202c0.231-1.181,0.494-2.519,1.081-3.373c0.157-0.229,0.365-0.465,0.634-0.715C38.695,43.805,38.908,43.726,39.124,43.726z"/><path fill="none" stroke="#FFFFFF" stroke-width="1.25" stroke-linejoin="round" stroke-miterlimit="10" d="M67.621,21.415"/><path fill="#FFFFFF" d="M70.745,31.189c-0.166,0-0.325-0.066-0.442-0.183s-0.183-0.276-0.183-0.442l0.002-9.15c0-0.345,0.28-0.625,0.625-0.625h11.659c0.35,0,3.472,0.018,5.281,0.637c0.891,0.305,3.045,2.068,4.529,3.526l5.191,5.167c0.179,0.178,0.232,0.447,0.137,0.681c-0.097,0.234-0.325,0.387-0.578,0.387L70.745,31.189z M71.372,22.039l-0.002,7.9l24.083-0.002l-4.115-4.096c-1.621-1.593-3.513-3.046-4.056-3.232c-1.313-0.449-3.684-0.569-4.876-0.569H71.372z"/><path fill="#FFFFFF" d="M67.621,31.189H51.767c-1.544-0.191-2.544-0.799-2.895-1.717c-0.187-0.489-0.333-1.503,0.793-2.804c2.152-2.487,4.375-4.312,5.947-4.882c2.253-0.763,4.863-0.962,5.364-0.994l6.644-0.001c0.345,0,0.625,0.28,0.625,0.625v9.149C68.246,30.909,67.966,31.189,67.621,31.189z M61.017,22.04c-0.25,0.018-2.855,0.202-4.991,0.925c-1.004,0.365-3.036,1.771-5.415,4.521c-0.519,0.6-0.722,1.146-0.571,1.54c0.173,0.454,0.849,0.797,1.806,0.918l15.15-0.005V22.04H61.017z"/><path fill="none" stroke="#FFFFFF" stroke-width="1.25" stroke-linejoin="round" stroke-miterlimit="10" d="M105.909,41.769"/><path fill="none" stroke="#FFFFFF" stroke-width="1.25" stroke-linejoin="round" stroke-miterlimit="10" d="M102.495,30.696"/><path fill="none" stroke="#FFFFFF" stroke-width="1.25" stroke-linejoin="round" stroke-miterlimit="10" d="M88.945,18.58"/><path fill="#FFFFFF" d="M47.297,53.092c-2.991,0-5.424-2.434-5.424-5.424s2.433-5.424,5.424-5.424c2.991,0,5.425,2.434,5.425,5.424S50.288,53.092,47.297,53.092z M47.297,43.494c-2.301,0-4.174,1.872-4.174,4.174s1.873,4.174,4.174,4.174c2.302,0,4.175-1.872,4.175-4.174S49.598,43.494,47.297,43.494z"/><path fill="#FFFFFF" d="M110.708,53.092c-2.99,0-5.424-2.434-5.424-5.424s2.434-5.424,5.424-5.424s5.424,2.434,5.424,5.424S113.698,53.092,110.708,53.092z M110.708,43.494c-2.302,0-4.174,1.872-4.174,4.174s1.872,4.174,4.174,4.174s4.174-1.872,4.174-4.174S113.01,43.494,110.708,43.494z"/><rect x="58.558" y="44.455" fill="#FFFFFF" width="36.125" height="1.25"/></g></svg>