<?xml version="1.0" encoding="utf-8"?><!DOCTYPE svg PUBLIC "-//W3C//DTD SVG 1.1//EN" "http://www.w3.org/Graphics/SVG/1.1/DTD/svg11.dtd"><svg version="1.1" id="Layer_1" xmlns="http://www.w3.org/2000/svg" xmlns:xlink="http://www.w3.org/1999/xlink" x="0px" y="0px" width="154.771px" height="74.834px" viewBox="0 0 154.771 74.834" enable-background="new 0 0 154.771 74.834" xml:space="preserve"><path fill="#FFFFFF" d="M142.783,52.597c-0.005,0-0.011,0-0.017,0c-2.708,0.072-5.148,0.919-7.509,1.736c-2.51,0.87-5.104,1.77-8.078,1.77c-1.513,0-2.818-0.207-4.012-0.514c0.012-0.011,0.028-0.023,0.041-0.034l0.215-0.185c5.066-4.333,10.483-9.283,10.622-13.193c0.018-0.483-0.36-0.889-0.843-0.905c-1.452-0.053-2.729-0.078-3.904-0.078c-1.172,0-2.096,0.025-3.001,0.049c-1.454,0.04-2.856,0.075-5.189,0.005c-1.007-0.827-2.163-2.812-3.104-4.427c-0.854-1.464-1.59-2.729-2.292-3.406c-0.093-0.089-0.204-0.157-0.326-0.199c-0.906-0.308-2.25-0.274-3.469-0.258c-0.276,0.003-0.548,0.007-0.806,0.007c-0.879,0-1.205-0.048-1.325-0.084c-0.93-0.82-2.21-2.686-3.342-4.334c-1.565-2.282-2.49-3.591-3.29-3.98c-0.302-0.146-0.453-0.22-10.295-0.388c-0.76-0.013-1.421-0.024-1.914-0.034c-0.57-1.026-1.632-3.145-2.662-5.202c-1.532-3.059-3.116-6.221-3.771-7.201c-0.16-0.241-0.43-0.387-0.72-0.389c-0.156-0.001-0.46-0.01-0.874-0.021c-1.134-0.031-3.03-0.083-5.016-0.083c-1.923,0-3.495,0.05-4.672,0.148c-0.261,0.022-0.499,0.16-0.647,0.375c-0.149,0.216-0.193,0.487-0.121,0.739c0.77,2.676,2.232,9.093,2.803,11.63l-2.958,0.019c-3.286-12.26-3.837-12.462-4.322-12.641c-0.212-0.079-0.533-0.198-4.119-0.198c-2.765,0-6.049,0.073-6.082,0.074c-0.48,0.011-0.862,0.406-0.855,0.886l0.155,11.845c-1.114-0.01-3.108-0.024-5.069-0.024c-5.353,0-5.605,0.1-5.829,0.187c-0.46,0.181-0.936,0.368-2.944,8.605c-0.326-0.002-0.74-0.004-1.188-0.004c-2.968,0-3.405,0.073-3.57,0.101c-0.517,0.086-1.468,0.246-3.494,8.501l-11.44,0.045c-0.307,0.001-0.59,0.163-0.748,0.426c-0.157,0.264-0.166,0.59-0.021,0.86c0.179,0.336,3.075,5.716,7.719,11.318c-1.776,0.622-3.63,1.226-5.871,1.272c-4.029,0.094-6.832-0.405-11.113-1.944c-0.324-0.117-0.683,0.052-0.799,0.376c-0.117,0.325,0.051,0.684,0.376,0.8c4.443,1.599,7.371,2.115,11.562,2.019c2.607-0.056,4.665-0.78,6.654-1.481c0.019-0.007,0.037-0.013,0.056-0.02c2.162,2.5,4.655,4.985,7.402,7.032c0.63,0.381,2.304,1.393,31.662,1.393c0.001,0,0.001,0,0.002,0c18.722,0,38.512-0.418,39.612-0.521c2.136-0.196,8.567-4.063,11.904-6.523c1.507,0.458,3.206,0.811,5.23,0.811c3.185,0,5.881-0.935,8.487-1.838c2.375-0.823,4.618-1.601,7.133-1.668c0.345-0.01,0.617-0.297,0.608-0.642C143.398,52.865,143.121,52.597,142.783,52.597z M77.904,12.997c1.961,0,3.843,0.051,4.967,0.082c0.156,0.004,0.297,0.008,0.421,0.012c0.418,0.714,1.08,1.985,1.811,3.422h-9.807c-0.304-1.26-0.603-2.463-0.863-3.443C75.399,13.021,76.561,12.997,77.904,12.997z M63.867,13.069c2.069,0,2.946,0.041,3.299,0.068c0.238,0.521,0.65,1.758,1.146,3.376h-9.576l-0.044-3.388C59.851,13.104,61.982,13.069,63.867,13.069z M47.024,25.92c0.5-0.03,1.77-0.069,4.991-0.069c2.935,0,5.945,0.032,5.947,0.032c0.238-0.002,0.462-0.09,0.629-0.257c0.167-0.167,0.258-0.394,0.255-0.629l-0.095-7.233h9.937c0.66,2.224,1.418,4.928,2.104,7.5c0.103,0.383,0.45,0.649,0.846,0.649c0.002,0,0.004,0,0.005,0l4.721-0.03c0.265-0.001,0.514-0.123,0.679-0.33c0.165-0.207,0.228-0.477,0.17-0.735c-0.051-0.232-0.811-3.646-1.619-7.055h10.142c0.328,0.653,0.661,1.317,0.984,1.962c1.269,2.533,2.467,4.925,2.973,5.743c0.156,0.251,0.428,0.407,0.724,0.415c0.49,0.011,1.358,0.026,2.415,0.044c2.836,0.048,8.622,0.147,9.627,0.257c0.498,0.37,1.674,2.084,2.544,3.352c0.956,1.393,1.937,2.821,2.836,3.847H44.925C45.695,30.241,46.605,26.919,47.024,25.92z M38.985,34.694c0.338-0.023,1.148-0.055,3.069-0.055c1.02,0,1.864,0.009,1.866,0.009c0.031,0,0.059-0.012,0.09-0.015h65.64c0.39,0.063,0.868,0.082,1.462,0.082c0.265,0,0.544-0.003,0.828-0.007c0.287-0.003,0.579-0.007,0.868-0.007c0.367,0,1.277,0,1.831,0.123c0.514,0.58,1.193,1.747,1.853,2.878c0.853,1.463,1.728,2.954,2.654,4.037H36.734C37.49,38.72,38.473,35.485,38.985,34.694z M35.683,43.237c0.231-0.001,0.438-0.099,0.595-0.25h84.275v-0.04c0.072,0.021,0.146,0.037,0.222,0.039c2.545,0.086,4.028,0.047,5.569,0.006c0.891-0.024,1.801-0.049,2.954-0.049c0.879,0,1.817,0.015,2.849,0.045c-1.02,3.491-6.908,8.527-9.861,11.053l-0.216,0.185c-0.267,0.229-0.584,0.478-0.921,0.733c-0.445-0.158-0.884-0.32-1.316-0.483c-1.96-0.737-3.812-1.435-6.13-1.444c-0.018,0-0.035,0-0.054,0c-2.64,0-4.763,0.934-6.638,1.759c-1.533,0.675-2.982,1.312-4.457,1.312c-3.133,0-5.411-0.864-7.615-1.7c-1.918-0.727-3.901-1.479-6.381-1.639c-2.986-0.183-5.31,0.88-7.365,1.823c-1.691,0.776-3.29,1.51-5.077,1.51c-1.833,0-3.559-0.74-5.385-1.523c-2.161-0.927-4.61-1.977-7.676-1.977c-2.877,0-5.136,0.777-7.321,1.528c-2.068,0.712-4.023,1.396-6.326,1.306c-2.298-0.078-4.088-0.753-5.82-1.406c-1.854-0.699-3.771-1.422-6.269-1.422c-1.881,0-3.505,0.418-5.04,0.923c-3.469-4.113-6.041-8.228-7.226-10.246L35.683,43.237z M109.884,61.323c-1.052,0.098-21.188,0.513-39.454,0.513c-25.931,0-30.148-0.798-30.687-1.093c-2.396-1.786-4.609-3.962-6.573-6.188c1.302-0.403,2.631-0.702,4.149-0.702c2.27,0,3.998,0.651,5.828,1.342c1.827,0.688,3.715,1.4,6.218,1.486c2.533,0.07,4.69-0.655,6.775-1.373c2.087-0.719,4.246-1.461,6.914-1.461c2.81,0,5.033,0.953,7.184,1.876c1.948,0.835,3.788,1.624,5.878,1.624c2.061,0,3.859-0.825,5.599-1.624c2.016-0.925,4.09-1.887,6.764-1.711c2.292,0.146,4.102,0.833,6.018,1.56c2.31,0.876,4.697,1.781,8.059,1.781c1.737,0,3.304-0.688,4.961-1.418c1.859-0.818,3.755-1.68,6.182-1.653c2.095,0.009,3.844,0.667,5.695,1.364c0.176,0.066,0.356,0.134,0.537,0.2C116.427,58.283,111.203,61.202,109.884,61.323z"/></svg>