<?xml version="1.0" encoding="utf-8"?><!DOCTYPE svg PUBLIC "-//W3C//DTD SVG 1.1//EN" "http://www.w3.org/Graphics/SVG/1.1/DTD/svg11.dtd"><svg version="1.1" id="Layer_1" xmlns="http://www.w3.org/2000/svg" xmlns:xlink="http://www.w3.org/1999/xlink" x="0px" y="0px" width="154.771px" height="74.834px" viewBox="0 0 154.771 74.834" enable-background="new 0 0 154.771 74.834" xml:space="preserve"><g><path fill="none" stroke="#ffffff" stroke-width="1.75" stroke-miterlimit="10" d="M91.999,10.169c-0.159-0.544-2.311-0.934-3.123-1.105c-0.815-0.175-4.367-0.648-6.632-0.059c-2.169,0.563-9.628,3.206-10.394,3.568c-0.338,0.161-5.809,2.219-11.883,4.493l-2.342-0.671c0.938-0.536,1.834-1.11,1.834-1.11l-1.665-4.1c0,0-2.013,0.21-3.653,0.876c-1.627,0.661-3.594,2.1-3.594,2.1l0.093,0.229l-5.252-1.507c1.021-0.569,2.081-1.249,2.081-1.249l-1.665-4.101c0,0-2.014,0.21-3.653,0.875c-1.627,0.663-3.594,2.102-3.594,2.102l0.139,0.342l-6.119-1.873c0,0-4.093-1.312-4.626-1.369c-0.708-0.077-3.974,1.064-3.974,1.064l2.342,1.345c0.408,0.337,6.518,3.734,10.111,5.88c3.664,2.188,6.428,3.595,9.16,5.214c0.268,0.159,0.721,0.493,1.211,0.875c-2.096,0.782-3.492,1.304-3.646,1.362c-0.717,0.272-10.08,3.759-11.197,4.129c-1.458,0.479-5.703-0.873-7.283-1.395c-1.305-0.428-6.351-2.469-8.027-2.784c-1.218-0.229-3.967,0.614-3.967,0.614c0.596,0.485,3.34,2.727,4.755,4.289c0.667,0.735,4.142,4.643,4.142,4.643s-3.509,1.971-3.557,2.076c0.123,0.32,0.395,0.994,0.395,0.994s9.684,0.625,11.859,0.16c1.459-0.311,7.264-1.668,8.17-1.944c1.688-0.515,28.539-10.567,29.807-11.047c1.264-0.481,14.764-5.617,15.377-5.844c1.218-0.452,2.6-1.2,3.779-1.935c1.993-1.241,3.675-2.971,4.27-3.91C91.979,10.921,92.157,10.712,91.999,10.169z"/><path fill="none" stroke="#ffffff" stroke-width="1.75" stroke-linecap="round" stroke-linejoin="round" stroke-miterlimit="10" d="M92.851,40.982c-0.429,0.91-0.743,1.218-1.229,1.378c-0.801,0.265-1.265,0.151-1.794-0.757c-1.245-2.136-3.306-2.841-4.528-2.799c-3.287,0.112-5.094,2.431-5.208,5.118c-0.081,1.912,1.134,3.594,2.726,4.66"/><path fill="none" stroke="#ffffff" stroke-width="1.25" stroke-linejoin="round" stroke-miterlimit="10" d="M93.829,54.325h-12.42c-1.434-0.19-1.943-1.324-1.98-2.484c-0.057-1.743,0.918-3.304,2.871-3.102c4.461,0.729,10.229,0.623,10.883,0.532"/><path fill="none" stroke="#ffffff" stroke-width="1.75" stroke-linejoin="round" stroke-miterlimit="10" d="M131.364,54.325c1.965,0,4.016-0.802,4.016-2.545s-0.715-3.226-3.881-3.174c0,0,0.768-1.478,0.652-2.771c-0.238-2.665-3.424-5.002-8.617-6.353c-5.191-1.351-27.857-1.047-30.479-0.389c-0.773,0.895,0.334,13.724,0.773,15.23"/><path fill="none" stroke="#ffffff" stroke-width="1.25" stroke-linejoin="round" stroke-miterlimit="10" d="M97.474,38.803c-0.335,3.811,0.024,10.508,0.965,15.522"/><path fill="none" stroke="#ffffff" stroke-width="1.75" stroke-linejoin="round" stroke-miterlimit="10" d="M78.804,54.325c-0.021,0-0.041,0.006-0.062,0.007v-2.437V36.47c0-1.229-1.121-2.951-2.506-2.951s-2.508,0.996-2.508,2.225v29.333c0,1.229,1.123,2.224,2.508,2.224s2.506-0.995,2.506-2.224v-5.564c0.021,0,0.041,0.005,0.062,0.005h56.99v5.56c0,1.229,1.123,2.224,2.508,2.224s2.508-0.995,2.508-2.224V42.408c0-1.229-1.123-2.225-2.508-2.225s-2.508,0.996-2.508,2.225v11.917H78.804z"/><path fill="none" stroke="#ffffff" stroke-width="1.25" stroke-linejoin="round" stroke-miterlimit="10" d="M83.691,48.937"/></g></svg>