<?xml version="1.0" encoding="utf-8"?><!DOCTYPE svg PUBLIC "-//W3C//DTD SVG 1.1//EN" "http://www.w3.org/Graphics/SVG/1.1/DTD/svg11.dtd"><svg version="1.1" id="Layer_1" xmlns="http://www.w3.org/2000/svg" xmlns:xlink="http://www.w3.org/1999/xlink" x="0px" y="0px" width="154.771px" height="74.834px" viewBox="0 0 154.771 74.834" enable-background="new 0 0 154.771 74.834" xml:space="preserve"><path fill="none" stroke="#ffffff" stroke-width="1.75" stroke-miterlimit="10" d="M137.078,20.969c-0.235-0.803-3.411-1.377-4.612-1.633c-1.203-0.257-6.445-0.955-9.789-0.086c-3.202,0.833-14.213,4.734-15.345,5.27c-0.499,0.237-8.573,3.274-17.542,6.633l-3.457-0.992c1.386-0.79,2.709-1.638,2.709-1.638l-2.459-6.053c0,0-2.973,0.311-5.393,1.294c-2.403,0.976-5.306,3.101-5.306,3.101l0.137,0.337l-7.755-2.225c1.508-0.841,3.074-1.844,3.074-1.844l-2.459-6.053c0,0-2.973,0.31-5.393,1.292c-2.403,0.978-5.305,3.102-5.305,3.102l0.204,0.504l-9.034-2.765c0,0-6.042-1.938-6.829-2.021c-1.046-0.112-5.865,1.572-5.865,1.572l3.456,1.985c0.602,0.497,9.621,5.513,14.926,8.681c5.41,3.23,9.492,5.307,13.524,7.696c0.395,0.234,1.063,0.728,1.788,1.291c-3.096,1.156-5.156,1.925-5.385,2.012c-1.059,0.402-14.879,5.549-16.529,6.095c-2.152,0.71-8.418-1.288-10.753-2.057c-1.925-0.633-9.374-3.646-11.851-4.11c-1.797-0.339-5.855,0.906-5.855,0.906c0.879,0.717,4.932,4.024,7.021,6.332c0.983,1.085,6.114,6.853,6.114,6.853s-5.182,2.91-5.25,3.065c0.18,0.474,0.582,1.468,0.582,1.468s14.294,0.923,17.508,0.236c2.153-0.459,10.722-2.462,12.061-2.871c2.49-0.759,42.131-15.599,44.001-16.309c1.868-0.71,21.796-8.291,22.702-8.626c1.797-0.667,3.838-1.772,5.578-2.855c2.943-1.832,5.426-4.387,6.303-5.772C137.047,22.078,137.311,21.771,137.078,20.969z"/></svg>