<?xml version="1.0" encoding="utf-8"?><!DOCTYPE svg PUBLIC "-//W3C//DTD SVG 1.1//EN" "http://www.w3.org/Graphics/SVG/1.1/DTD/svg11.dtd"><svg version="1.1" id="Layer_1" xmlns="http://www.w3.org/2000/svg" xmlns:xlink="http://www.w3.org/1999/xlink" x="0px" y="0px" width="154.771px" height="74.834px" viewBox="0 0 154.771 74.834" enable-background="new 0 0 154.771 74.834" xml:space="preserve"><g><path fill="none" stroke="#ffffff" stroke-width="1.75" stroke-linecap="round" stroke-linejoin="round" stroke-miterlimit="10" d="M55.979,23.186c-0.646,1.375-1.122,1.839-1.855,2.081c-1.207,0.398-1.908,0.228-2.707-1.143c-1.88-3.226-4.99-4.29-6.837-4.227c-4.962,0.169-7.689,3.67-7.862,7.729c-0.123,2.887,1.792,5.605,4.386,7.244"/><path fill="none" stroke="#ffffff" stroke-width="1.25" stroke-linejoin="round" stroke-miterlimit="10" d="M57.457,43.33H38.706c-2.166-0.288-2.934-1.999-2.99-3.752c-0.085-2.632,1.387-4.987,4.335-4.682c6.734,1.101,15.442,0.939,16.43,0.804"/><path fill="none" stroke="#ffffff" stroke-width="1.75" stroke-linejoin="round" stroke-miterlimit="10" d="M114.123,43.33c2.967,0,6.062-1.211,6.062-3.843s-1.079-4.87-5.858-4.792c0,0,1.16-2.23,0.985-4.182c-0.359-4.024-5.169-7.552-13.009-9.591s-42.057-1.581-46.015-0.588c-1.167,1.351,0.505,20.719,1.169,22.995"/><path fill="none" stroke="#ffffff" stroke-width="1.25" stroke-linejoin="round" stroke-miterlimit="10" d="M62.957,19.895c-0.505,5.753,0.038,15.863,1.459,23.436"/><path fill="none" stroke="#ffffff" stroke-width="1.75" stroke-linejoin="round" stroke-miterlimit="10" d="M34.772,43.33c-0.031,0-0.062,0.008-0.094,0.009v-3.678V16.372c0-1.855-1.694-4.455-3.785-4.455s-3.785,1.504-3.785,3.358V59.56c0,1.854,1.694,3.357,3.785,3.357s3.785-1.503,3.785-3.357v-8.4c0.031,0.001,0.062,0.008,0.094,0.008h86.038l0.001,8.393c0,1.854,1.693,3.357,3.785,3.357c2.09,0,3.785-1.503,3.785-3.357V25.338c0-1.854-1.695-3.358-3.785-3.358c-2.092,0-3.785,1.504-3.785,3.358V43.33H34.772z"/><path fill="none" stroke="#ffffff" stroke-width="1.25" stroke-linejoin="round" stroke-miterlimit="10" d="M42.151,35.193"/></g></svg>