<?xml version="1.0" encoding="utf-8"?><!DOCTYPE svg PUBLIC "-//W3C//DTD SVG 1.1//EN" "http://www.w3.org/Graphics/SVG/1.1/DTD/svg11.dtd"><svg version="1.1" id="Layer_1" xmlns="http://www.w3.org/2000/svg" xmlns:xlink="http://www.w3.org/1999/xlink" x="0px" y="0px" width="154.771px" height="74.834px" viewBox="0 0 154.771 74.834" enable-background="new 0 0 154.771 74.834" xml:space="preserve"><g>    <g>        <path fill="none" stroke="#ffffff" stroke-width="1.75" stroke-linejoin="round" stroke-miterlimit="10" d="M38.511,23.616v36.411                c0,2.733,2.217,4.95,4.951,4.95h8.174V18.665h-8.174C40.728,18.665,38.511,20.882,38.511,23.616z"/>        <path fill="none" stroke="#ffffff" stroke-width="1.75" stroke-linejoin="round" stroke-miterlimit="10" d="M111.31,18.665h-8.049                v46.312h8.049c2.734,0,4.951-2.217,4.951-4.95V23.616C116.261,20.882,114.044,18.665,111.31,18.665z"/>        <polygon fill="none" stroke="#ffffff" stroke-width="1.75" stroke-linejoin="round" stroke-miterlimit="10" points="88.648,9.857                     66.146,9.857 66.146,18.665 56.011,18.665 56.011,64.978 98.886,64.978 98.886,18.665 88.648,18.665 "/>    </g>    <polygon fill="none" stroke="#ffffff" stroke-width="1.25" stroke-linejoin="round" stroke-miterlimit="10" points="89.339,56.994 85.74,54.079 81.3,55.392 82.959,51.068 80.339,47.25 84.964,47.493 87.785,43.821 88.983,48.294 93.348,49.843 89.464,52.365 "/>    <rect x="72.231" y="29.052" transform="matrix(0.9906 0.1371 -0.1371 0.9906 5.207 -10.7107)" fill="none" stroke="#ffffff" stroke-width="1.25" stroke-linejoin="round" stroke-miterlimit="10" width="16.294" height="6.805"/>    <ellipse fill="none" stroke="#ffffff" stroke-width="1.25" stroke-linejoin="round" stroke-miterlimit="10" cx="67.329" cy="46.652" rx="4.833" ry="4.505"/>    <rect x="70.398" y="13.336" fill="none" stroke="#ffffff" stroke-width="1.25" stroke-linejoin="round" stroke-miterlimit="10" width="13.998" height="5.329"/></g></svg>