<?xml version="1.0" encoding="utf-8"?>
<!-- Generator: Adobe Illustrator 21.1.0, SVG Export Plug-In . SVG Version: 6.00 Build 0)  -->
<svg version="1.1" id="Capa_1" xmlns="http://www.w3.org/2000/svg" xmlns:xlink="http://www.w3.org/1999/xlink" x="0px" y="0px"
	 viewBox="0 0 400 254" style="enable-background:new 0 0 400 254;" xml:space="preserve">
<style type="text/css">
	.st0{fill:none;stroke:#005CB9;stroke-width:5;stroke-miterlimit:10;}
</style>
<path class="st0" d="M323.1,60.4c9.7,3.3,17.5,13.1,22.6,28.6c6.7,19.9,8.3,68.7,2.7,82.8l-1.1,2.8h-21.7l-1.7-6
	c-7-25-40-23.8-46.6,1.8l-1.1,4.3h-148v-2.9c0-14.5-21.2-26.3-34.1-19c-6.5,3.7-12.9,12-12.9,16.7c0,3.5-1.2,5.1-3.6,5.1
	c-2,0-2.4-0.5-2.4-2.9c0-2.5-0.6-3.1-4.3-4.6c-7.9-3.1-16.3-9.5-19.6-15l-3.1-5.1v-36.3c0-44.9,0.6-47.6,10.9-51
	C65.8,57.4,316.5,58.1,323.1,60.4 M255.5,67.1c-2.3,0.6-3.6,31.7-1.4,35.1c0.6,1,7.2,1.2,29.2,1l28.4-0.3l0.3-17
	c0.2-9.3,0.1-17.5-0.2-18.3C311.3,66.4,260.3,65.8,255.5,67.1 M193.4,67.3c-1,0.6-1.2,5-1,18.2l0.3,17.4l27.8,0.3l27.8,0.3v-37
	h-26.8C206.8,66.5,194.1,66.8,193.4,67.3 M128.7,84.9v18h58l0.3-17c0.2-9.3,0.1-17.6-0.2-18.3c-0.4-1-6.4-1.2-29.3-1l-28.8,0.3V84.9
	 M74.2,67.8c-3.8,1-4.7,1.7-5.7,4.7c-1.3,3.9-1.7,18.6-0.5,19.4c0.7,0.4,18.1,4.2,30.7,6.7c2.2,0.4,6.7,1.3,10,2s7.8,1.3,10,1.3
	l4,0.1l0.3-15.8c0.4-21.7,2.6-19.7-23.1-19.7C87.2,66.6,76.9,67.1,74.2,67.8 M320.4,99c-0.4,40,0.3,41.7,15.7,41.9l7.6,0.1l0.3-5
	c1.6-22.8-6.4-53.9-16.5-63.9C320.8,65.2,320.8,65.2,320.4,99 M56.2,133.5c0,7.1,0.2,7.9,1.9,7.9c3.6,0,4.8-14,1.4-15.9
	C56.7,124,56.2,125.1,56.2,133.5 M307.2,154.7c16,5.1,18.7,28.6,4.4,37.7c-20.5,13-42.3-15.1-25-32.4
	C292.6,154.1,299.4,152.3,307.2,154.7 M113.2,156.2c19.8,9.8,12.7,39.2-9.4,39.2c-18.2,0-26.6-24.2-12.6-36.2
	C98.5,153,104.9,152.1,113.2,156.2 M334.7,159.9c0,5,6.6,6.9,7.9,2.3c1.6-5.8,1-6.9-3.6-6.6C334.7,155.9,334.7,156,334.7,159.9
	 M307.4,165.7c6.3,5.3,6.5,12.8,0.6,18c-9.4,8.2-23.6-4.4-16.5-14.6C295.9,162.8,302.3,161.4,307.4,165.7 M108.8,164.4
	c3.3,1.3,6.4,6.4,6.4,10.5c0,9.9-10.9,14.6-18.2,7.8C88.1,174.4,97.5,159.9,108.8,164.4 M295.9,168.5c-5.8,4.6-2.5,14.3,4.9,14.3
	c4.9,0,7.5-2.7,7.5-8c0-4.7-3.3-8.4-7.5-8.4C299.5,166.4,297.3,167.4,295.9,168.5 M98.7,168.9c-4.5,4.5-2.3,12.5,3.9,14.1
	c6,1.5,11.5-4.8,9.5-10.7C109.9,166.3,103,164.6,98.7,168.9"/>
</svg>
