<?xml version="1.0" encoding="utf-8"?>
<!-- Generator: Adobe Illustrator 21.1.0, SVG Export Plug-In . SVG Version: 6.00 Build 0)  -->
<svg version="1.1"
	 id="svg2" inkscape:version="0.91 r13725" sodipodi:docname="icon-car--blue.svg" xmlns:cc="http://creativecommons.org/ns#" xmlns:dc="http://purl.org/dc/elements/1.1/" xmlns:inkscape="http://www.inkscape.org/namespaces/inkscape" xmlns:rdf="http://www.w3.org/1999/02/22-rdf-syntax-ns#" xmlns:sodipodi="http://sodipodi.sourceforge.net/DTD/sodipodi-0.dtd" xmlns:svg="http://www.w3.org/2000/svg"
	 xmlns="http://www.w3.org/2000/svg" xmlns:xlink="http://www.w3.org/1999/xlink" x="0px" y="0px" viewBox="0 0 154.8 74.8"
	 style="enable-background:new 0 0 154.8 74.8;" xml:space="preserve">
<style type="text/css">
	.st0{fill:none;stroke:#005CB9;stroke-width:2.5;stroke-linejoin:round;stroke-miterlimit:10;}
</style>
<sodipodi:namedview  bordercolor="#666666" borderopacity="1" gridtolerance="10" guidetolerance="10" id="namedview16" inkscape:current-layer="svg2" inkscape:cx="77.385498" inkscape:cy="37.417" inkscape:pageopacity="0" inkscape:pageshadow="2" inkscape:window-height="837" inkscape:window-maximized="1" inkscape:window-width="1440" inkscape:window-x="-8" inkscape:window-y="-8" inkscape:zoom="2.4487792" objecttolerance="10" pagecolor="#ffffff" showgrid="false">
	</sodipodi:namedview>
<g id="g4">
	<path id="path6" class="st0" d="M127.9,33.4c-1.8-0.4-8.2-1.1-13.9-1.9c-4.4-0.6-11.5-0.8-11.5-0.8L94,23.4c0,0-3.6-3.4-5.5-4
		c-2.3-0.8-6-0.8-6-0.8H60.9c0,0-3.2,0.2-6,1.1s-14,10.4-15.4,10.9S25.6,32,25,33.6s-0.3,4-0.2,5.2c0.1,1.2,1.2,6.4,2.4,7.7
		s9,3.6,9.7,3.7c0.7,0.1,0.7-3.6,1.7-5.1c0.1-0.2,0.3-0.4,0.5-0.6c-0.3,0.9-0.5,1.9-0.5,2.9c0,4.8,3.9,8.8,8.8,8.8
		c3.8,0,7-2.4,8.2-5.7l0.1,0.1h44.8c0,0,0.1-5.1,1.5-5.3h0.1c-0.2,0.7-0.3,1.4-0.3,2.2c0,4.8,3.9,8.8,8.8,8.8c4.8,0,8.8-3.9,8.8-8.8
		c0-2.7-1.2-5.1-3.1-6.7c1,0.5,3,2.2,3.4,3.7c0.5,1.9,0.6,3.2,1.3,3.8c0.7,0.6,4.4,0.5,5,0.4c0.6-0.2,5.2-7.2,5.6-8.7
		c0.4-1.3,0.4-5.1,0.4-5.1S129.8,33.8,127.9,33.4z"/>
	<path id="path8" class="st0" d="M70.7,30.6h26.2l-5.2-5.2c-1.6-1.6-3.6-3.1-4.3-3.4c-1.4-0.5-3.8-0.6-5.1-0.6H70.7
		C70.7,21.4,70.7,30.6,70.7,30.6z M67.6,30.6H51.8c-2.3-0.3-3.1-1.7-1.6-3.5c2.3-2.6,4.4-4.2,5.7-4.7c2.2-0.7,4.8-0.9,5.2-1h6.6v9.2
		H67.6z"/>
	<circle id="circle10" class="st0" cx="47.3" cy="47.7" r="4.8"/>
	<circle id="circle12" class="st0" cx="110.7" cy="47.7" r="4.8"/>
	<path id="path14" class="st0" d="M58.6,45.1h36.1"/>
</g>
</svg>
