<?xml version="1.0" encoding="utf-8"?>
<!-- Generator: Adobe Illustrator 21.1.0, SVG Export Plug-In . SVG Version: 6.00 Build 0)  -->
<svg version="1.1"
	 id="svg2" inkscape:version="0.91 r13725" sodipodi:docname="icon-cruise--blue.svg" xmlns:cc="http://creativecommons.org/ns#" xmlns:dc="http://purl.org/dc/elements/1.1/" xmlns:inkscape="http://www.inkscape.org/namespaces/inkscape" xmlns:rdf="http://www.w3.org/1999/02/22-rdf-syntax-ns#" xmlns:sodipodi="http://sodipodi.sourceforge.net/DTD/sodipodi-0.dtd" xmlns:svg="http://www.w3.org/2000/svg"
	 xmlns="http://www.w3.org/2000/svg" xmlns:xlink="http://www.w3.org/1999/xlink" x="0px" y="0px" viewBox="0 0 154.8 74.8"
	 style="enable-background:new 0 0 154.8 74.8;" xml:space="preserve">
<style type="text/css">
	.st0{fill:none;stroke:#005CB9;stroke-width:2.5;stroke-linejoin:round;stroke-miterlimit:10;}
	.st1{fill:none;stroke:#005CB9;stroke-width:2.5;stroke-miterlimit:10;}
	.st2{fill:none;stroke:#005CB9;stroke-width:2.5;stroke-linecap:round;stroke-miterlimit:10;}
</style>
<sodipodi:namedview  bordercolor="#666666" borderopacity="1" gridtolerance="10" guidetolerance="10" id="namedview14" inkscape:current-layer="svg2" inkscape:cx="77.385498" inkscape:cy="37.417" inkscape:pageopacity="0" inkscape:pageshadow="2" inkscape:window-height="837" inkscape:window-maximized="1" inkscape:window-width="1440" inkscape:window-x="-8" inkscape:window-y="-8" inkscape:zoom="2.4487792" objecttolerance="10" pagecolor="#ffffff" showgrid="false">
	</sodipodi:namedview>
<g id="g4">
	<path id="path6" class="st0" d="M27.4,42c0,0,6,11.2,14.4,17.5c3.3,2,63,0.9,64.9,0.7c1.9-0.2,9.1-4.5,11.6-6.7
		c3.2-2.7,9.5-8.1,9.7-11.7c-5.9-0.2-6.4,0.1-11.3,0c-1.9-1.3-3.9-6.1-5.2-7.4c-1.3-0.5-4.8,0.1-5.3-0.4c-1.9-1.6-4.8-7-6-7.6
		c-0.3-0.2-9.3-0.3-11.3-0.3c-1-1.6-5-10.1-6.1-11.7c-0.8,0-6.4-0.2-9.6,0c0.9,3.1,2.8,11.7,2.8,11.7h-4.3c0,0-3-11.4-3.6-11.6
		c-0.7-0.3-9.1-0.1-9.1-0.1L59,26c0,0-10-0.1-10.5,0.1S46.1,34,46.1,34s-4.2,0-4.9,0.1c-0.9,0.1-2.7,7.8-2.7,7.8L27.4,42z"/>
	<path id="path8" class="st1" d="M58.9,18.8h10.5 M74.2,18.8h10.9"/>
	<path id="path10" class="st2" d="M18,52.7c3.8,1.4,6.5,1.9,10.4,1.8c4.6-0.1,7.3-2.6,11.6-2.6s6.6,2.4,11.1,2.6
		c4.5,0.2,7.5-2.6,12.5-2.6s8.1,3.2,12,3.2S82.2,51.7,87,52c4.8,0.3,7.4,3.1,12.9,3.1c3.2,0,5.9-2.8,10.2-2.8
		c4.3,0,6.9,2.8,12.4,2.8s9.3-3.1,14.3-3.2"/>
	<path id="path12" class="st1" d="M38.5,42h77.8 M46.1,34.3h60.5"/>
</g>
</svg>
