<?xml version="1.0" encoding="utf-8"?>
<!-- Generator: Adobe Illustrator 21.1.0, SVG Export Plug-In . SVG Version: 6.00 Build 0)  -->
<svg version="1.1" id="Layer_1" xmlns="http://www.w3.org/2000/svg" xmlns:xlink="http://www.w3.org/1999/xlink" x="0px" y="0px"
	 viewBox="0 0 154.8 74.8" style="enable-background:new 0 0 154.8 74.8;" xml:space="preserve">
<style type="text/css">
	.st0{fill:none;stroke:#005CB9;stroke-width:2.75;stroke-linecap:round;stroke-linejoin:round;stroke-miterlimit:10;}
	.st1{fill:none;stroke:#005CB9;stroke-width:2.75;stroke-linejoin:round;stroke-miterlimit:10;}
	.st2{fill:none;stroke:#005CB9;stroke-width:2.75;stroke-miterlimit:10;}
</style>
<g>
	<path class="st0" d="M92.8,41c-0.4,0.9-0.7,1.2-1.2,1.4c-0.8,0.3-1.3,0.2-1.8-0.8c-1.2-2-3.2-2.7-4.4-2.7c-3.2,0.1-5,2.4-5.1,5
		c-0.1,1.9,1.1,3.6,2.6,4.7"/>
	<path class="st1" d="M93.6,54.1H81.3c-1.4-0.2-1.9-1.3-2-2.5c-0.1-1.7,0.9-3.2,2.9-3.1c4.4,0.7,10.1,0.6,10.8,0.5"/>
	<path class="st1" d="M130.9,54.1c2,0,3.9-0.8,3.9-2.5c0-1.7-0.7-3.2-3.8-3.2c0,0,0.8-1.5,0.7-2.7c-0.2-2.6-3.3-4.9-8.5-6.3
		c-5.1-1.4-27.6-1-30.2-0.4c-0.8,0.9,0.3,13.6,0.8,15"/>
	<path class="st1" d="M97.3,38.8c-0.3,3.8,0,10.4,1,15.4"/>
	<path class="st1" d="M78.8,54.1L78.8,54.1l-0.1-2.4V36.5c0-1.2-1.1-3-2.5-3c-1.4,0-2.5,1-2.5,2.2v29c0,1.2,1.1,2.2,2.5,2.2
		c1.4,0,2.5-1,2.5-2.2v-5.5c0,0,0,0,0.1,0h56.5v5.5c0,1.2,1.1,2.2,2.5,2.2c1.4,0,2.5-1,2.5-2.2V42.3c0-1.2-1.1-2.2-2.5-2.2
		c-1.4,0-2.5,1-2.5,2.2v11.8H78.8z"/>
	<path class="st1" d="M83.6,48.8"/>
	<path class="st2" d="M92.3,10.3c-0.2-0.5-2.3-0.9-3.1-1.1c-0.8-0.1-4.4-0.6-6.7,0c-2.1,0.6-9.5,3.2-10.2,3.6
		c-0.3,0.2-5.6,2.2-11.7,4.4c-0.1,0-0.2,0-0.3,0l-2.2-0.6c0.5-0.3,1-0.6,1.4-0.8c0.3-0.2,0.4-0.5,0.3-0.8l-1.3-3.2
		c-0.1-0.3-0.3-0.4-0.5-0.4c-0.7,0.1-2,0.3-3.2,0.8c-1.6,0.7-3.6,2-3.6,2l0.1,0.2l-4.7-1.3c-0.2-0.1-0.3-0.4-0.1-0.5
		c0.6-0.3,1.1-0.6,1.3-0.8c0.1-0.1,0.2-0.2,0.1-0.4l-1.5-3.6c-0.1-0.2-0.2-0.3-0.4-0.2c-0.6,0.1-2,0.3-3.3,0.8
		c-1.4,0.7-3.3,2.2-3.3,2.2l0.1,0.3l-6.1-1.9c0,0-4.1-1.3-4.5-1.4c-0.4,0-1.9,0.4-2.9,0.7c-0.5,0.2-0.5,0.8-0.2,1l1.4,0.8
		c0.3,0.4,6.4,3.8,10,6c3.7,2.2,6.3,3.6,9.1,5.1c0.1,0.1,0.2,0.1,0.3,0.2c0.4,0.3,0.3,0.9-0.1,1c-1.5,0.6-2.5,0.9-2.6,1
		c-0.7,0.3-10,3.8-11.1,4.1c-1.5,0.5-5.6-0.9-7.3-1.4c-1.3-0.4-6.3-2.5-7.9-2.7c-0.7-0.1-1.8,0.1-2.6,0.3c-0.6,0.1-0.7,0.8-0.3,1.2
		c1.1,0.9,2.6,2.3,3.7,3.3c0.7,0.7,4.1,4.5,4.1,4.5s-1.9,1.1-2.9,1.7c-0.4,0.2-0.5,0.7-0.4,1.1l0,0c0.1,0.2,0.2,0.3,0.4,0.3
		c1.6,0.1,9.5,0.6,11.5,0.1c1.5-0.3,7.3-1.7,8.1-1.9c1.7-0.5,28.3-10.5,29.5-11c1.3-0.5,14.7-5.5,15.3-5.7c1.2-0.5,2.6-1.2,3.8-1.9
		c2-1.2,3.7-3,4.3-3.8C92.3,11.2,92.6,10.9,92.3,10.3z"/>
</g>
</svg>
