<?xml version="1.0" encoding="utf-8"?>
<!-- Generator: Adobe Illustrator 21.1.0, SVG Export Plug-In . SVG Version: 6.00 Build 0)  -->
<svg version="1.1" id="Layer_1" xmlns="http://www.w3.org/2000/svg" xmlns:xlink="http://www.w3.org/1999/xlink" x="0px" y="0px"
	 viewBox="0 0 154.8 74.8" style="enable-background:new 0 0 154.8 74.8;" xml:space="preserve">
<style type="text/css">
	.st0{fill:none;stroke:#005CB9;stroke-width:2.75;stroke-miterlimit:10;}
</style>
<path class="st0" d="M137.1,21c-0.2-0.8-3.4-1.4-4.6-1.6c-1.2-0.3-6.4-1-9.8-0.1c-3.2,0.8-14.2,4.7-15.3,5.3
	c-0.5,0.2-8.4,3.2-17.3,6.6c-0.1,0.1-0.3,0.1-0.4,0l-3.2-0.9c0.8-0.4,1.5-0.9,2-1.2c0.4-0.2,0.5-0.7,0.4-1.2L87,23.2
	c-0.1-0.4-0.5-0.6-0.9-0.5c-1,0.1-3,0.5-4.7,1.2c-2.4,1-5.3,3.1-5.3,3.1l0.1,0.3l-6.9-2c-0.3-0.1-0.4-0.5-0.1-0.7
	c0.8-0.5,1.6-0.9,2-1.2c0.2-0.1,0.3-0.4,0.2-0.6L69,17.5c-0.1-0.2-0.3-0.4-0.6-0.3c-0.9,0.1-3.1,0.5-5,1.2c-2.4,1-5.3,3.1-5.3,3.1
	l0.2,0.5l-9-2.8c0,0-6-1.9-6.8-2c-0.7-0.1-2.8,0.6-4.3,1.1c-0.6,0.2-0.7,1-0.1,1.3l2.1,1.2c0.6,0.5,9.6,5.5,14.9,8.7
	c5.4,3.2,9.5,5.3,13.5,7.7c0.1,0.1,0.3,0.2,0.5,0.3c0.6,0.4,0.4,1.3-0.2,1.5c-2.3,0.8-3.7,1.4-3.9,1.5c-1.1,0.4-14.9,5.5-16.5,6.1
	c-2.2,0.7-8.4-1.3-10.8-2.1c-1.9-0.6-9.4-3.6-11.9-4.1c-1-0.2-2.6,0.1-3.9,0.4c-0.8,0.2-1.1,1.2-0.4,1.8c1.6,1.4,4,3.5,5.5,5.1
	c1,1.1,6.1,6.9,6.1,6.9s-2.8,1.6-4.3,2.4c-0.6,0.3-0.8,1-0.6,1.7l0,0c0.1,0.3,0.3,0.4,0.6,0.4c2.4,0.1,14.2,0.8,17.1,0.2
	c2.2-0.5,10.7-2.5,12.1-2.9c2.5-0.8,42.1-15.6,44-16.3s21.8-8.3,22.7-8.6c1.8-0.7,3.8-1.8,5.6-2.9c2.9-1.8,5.4-4.4,6.3-5.8
	C137,22.1,137.3,21.8,137.1,21z"/>
</svg>
