<?xml version="1.0" encoding="utf-8"?>
<!-- Generator: Adobe Illustrator 21.1.0, SVG Export Plug-In . SVG Version: 6.00 Build 0)  -->
<svg version="1.1" id="Layer_1" xmlns="http://www.w3.org/2000/svg" xmlns:xlink="http://www.w3.org/1999/xlink" x="0px" y="0px"
	 viewBox="0 0 154.8 74.8" style="enable-background:new 0 0 154.8 74.8;" xml:space="preserve">
<style type="text/css">
	.st0{fill:none;stroke:#005CB9;stroke-width:2.75;stroke-linecap:round;stroke-linejoin:round;stroke-miterlimit:10;}
	.st1{fill:none;stroke:#005CB9;stroke-width:2.75;stroke-linejoin:round;stroke-miterlimit:10;}
</style>
<g>
	<path class="st0" d="M56,23.2c-0.6,1.4-1.1,1.8-1.9,2.1c-1.2,0.4-1.9,0.2-2.7-1.1c-1.9-3.2-5-4.3-6.8-4.2c-5,0.2-7.7,3.7-7.9,7.7
		c-0.1,2.9,1.8,5.6,4.4,7.2"/>
	<path class="st1" d="M57.5,43.3H38.7c-2.2-0.3-2.9-2-3-3.8c-0.1-2.6,1.4-5,4.3-4.7c6.7,1.1,15.4,0.9,16.4,0.8"/>
	<path class="st1" d="M114.1,43.3c3,0,6.1-1.2,6.1-3.8s-1.1-4.9-5.9-4.8c0,0,1.2-2.2,1-4.2c-0.4-4-5.2-7.6-13-9.6s-42.1-1.6-46-0.6
		c-1.2,1.4,0.5,20.7,1.2,23"/>
	<path class="st1" d="M63,19.9c-0.5,5.8,0,15.9,1.5,23.4"/>
	<path class="st1" d="M34.8,43.3C34.7,43.3,34.7,43.3,34.8,43.3l-0.1-3.7V16.4c0-1.9-1.7-4.5-3.8-4.5s-3.8,1.5-3.8,3.4v44.3
		c0,1.9,1.7,3.4,3.8,3.4s3.8-1.5,3.8-3.4v-8.4h0.1h86v8.4c0,1.9,1.7,3.4,3.8,3.4c2.1,0,3.8-1.5,3.8-3.4V25.3c0-1.9-1.7-3.4-3.8-3.4
		c-2.1,0-3.8,1.5-3.8,3.4v18H34.8z"/>
	<path class="st1" d="M42.2,35.2"/>
</g>
</svg>
