<?xml version="1.0" encoding="utf-8"?>
<!-- Generator: Adobe Illustrator 21.1.0, SVG Export Plug-In . SVG Version: 6.00 Build 0)  -->
<svg version="1.1"
	 id="Capa_1" inkscape:version="0.91 r13725" sodipodi:docname="icon-train--blue.svg" xmlns:cc="http://creativecommons.org/ns#" xmlns:dc="http://purl.org/dc/elements/1.1/" xmlns:inkscape="http://www.inkscape.org/namespaces/inkscape" xmlns:rdf="http://www.w3.org/1999/02/22-rdf-syntax-ns#" xmlns:sodipodi="http://sodipodi.sourceforge.net/DTD/sodipodi-0.dtd" xmlns:svg="http://www.w3.org/2000/svg"
	 xmlns="http://www.w3.org/2000/svg" xmlns:xlink="http://www.w3.org/1999/xlink" x="0px" y="0px" viewBox="0 0 154.8 74.8"
	 style="enable-background:new 0 0 154.8 74.8;" xml:space="preserve">
<style type="text/css">
	.st0{fill:none;stroke:#005CB9;stroke-width:1.598;stroke-miterlimit:10;}
</style>
<sodipodi:namedview  bordercolor="#666666" borderopacity="1" gridtolerance="10" guidetolerance="10" id="namedview7" inkscape:current-layer="Capa_1" inkscape:cx="-33.513422" inkscape:cy="76.426346" inkscape:pageopacity="0" inkscape:pageshadow="2" inkscape:window-height="837" inkscape:window-maximized="1" inkscape:window-width="1440" inkscape:window-x="-8" inkscape:window-y="-8" inkscape:zoom="2.6074563" objecttolerance="10" pagecolor="#ffffff" showgrid="false">
	</sodipodi:namedview>
<g id="Capa_1_1_">
</g>
<g id="train_1_" transform="matrix(1.3925647,0,0,1.3925647,-101.88775,-30.820981)">
	<path id="path5" inkscape:connector-curvature="0" class="st0" d="M163.7,59.9L152,44c-1.4-2.1-4.4-5.9-10.4-5.9h-5.9l2-4.3
		l-4.4-6.7l-1.4,1.4l2.9,5.2l-2.1,4.4h-25.2l2-4.3l-4.4-6.7l-1.4,1.4l2.9,5.2l-2.1,4.4H97c-2.3,0-4.1,1.9-4.1,4.1v21.3
		c0,2.3,1.9,4.1,4.1,4.1h4.3c0.3,1.8,1.8,3.2,3.7,3.2c1.9,0,3.5-1.4,3.7-3.2h0.1c0.3,1.8,1.8,3.2,3.7,3.2c1.9,0,3.5-1.4,3.7-3.2
		h20.9c0.3,1.8,1.8,3.2,3.7,3.2c1.9,0,3.5-1.4,3.7-3.2c0,0,0.1,0,0.1,0c0.3,1.8,1.8,3.2,3.7,3.2s3.5-1.4,3.7-3.2c5.4,0,8.8,0,8.8,0
		C163.3,67.7,166.1,63.4,163.7,59.9z M112.4,52.2c0,0.9-0.7,1.7-1.7,1.7H98.9c-0.9,0-1.7-0.7-1.7-1.7v-8.3c0-0.9,0.7-1.7,1.7-1.7
		h11.9c0.9,0,1.7,0.7,1.7,1.7L112.4,52.2L112.4,52.2z M130.7,52.2c0,0.9-0.7,1.7-1.7,1.7h-11.9c-0.9,0-1.7-0.7-1.7-1.7v-8.3
		c0-0.9,0.7-1.7,1.7-1.7H129c0.9,0,1.7,0.7,1.7,1.7V52.2z M150.4,53.8h-15.1c-0.9,0-1.5-0.7-1.5-1.7l0-8.3c0-0.9,0.7-1.7,1.7-1.7
		h8.3c0.3,0,1.2,0.1,1.8,0.6c0.8,0.6,5.2,6.8,6.5,9.1C152.4,52.6,151.3,53.8,150.4,53.8z"/>
</g>
</svg>
