<?xml version="1.0" encoding="utf-8"?>
<!-- Generator: Adobe Illustrator 21.1.0, SVG Export Plug-In . SVG Version: 6.00 Build 0)  -->
<svg version="1.1" id="Capa_1" xmlns="http://www.w3.org/2000/svg" xmlns:xlink="http://www.w3.org/1999/xlink" x="0px" y="0px"
	 viewBox="0 0 154.8 74.8" style="enable-background:new 0 0 154.8 74.8;" xml:space="preserve">
<style type="text/css">
	.st0{fill:none;stroke:#005CB9;stroke-width:2;}
</style>
<path class="st0" d="M55.9,20c-9.5,0-14.9,4.3-14.8,14.8v16.1c0,12.3,6.4,15.3,14.8,14.8h43c11.8,0.7,15.1-5.5,14.8-14.8V34.8
	c0.5-11.5-5.7-15-14.8-14.8H55.9z M90.9,46.3h-9.5v10.3H75V46.3h-9.5v-6H75V30.2h6.4v10.1h9.5V46.3z M67.4,12.7h20.2
	c2.7,0,4.9,2.2,4.9,4.9H96c0-4.7-3.8-8.5-8.5-8.5H67.4c-4.7,0-8.5,3.8-8.5,8.5h3.6C62.4,14.9,64.6,12.7,67.4,12.7z"/>
</svg>
