<?xml version="1.0" encoding="utf-8"?>
<!-- Generator: Adobe Illustrator 21.1.0, SVG Export Plug-In . SVG Version: 6.00 Build 0)  -->
<svg version="1.1"
	 id="svg2" inkscape:version="0.91 r13725" sodipodi:docname="icon-package--blue.svg" xmlns:cc="http://creativecommons.org/ns#" xmlns:dc="http://purl.org/dc/elements/1.1/" xmlns:inkscape="http://www.inkscape.org/namespaces/inkscape" xmlns:rdf="http://www.w3.org/1999/02/22-rdf-syntax-ns#" xmlns:sodipodi="http://sodipodi.sourceforge.net/DTD/sodipodi-0.dtd" xmlns:svg="http://www.w3.org/2000/svg"
	 xmlns="http://www.w3.org/2000/svg" xmlns:xlink="http://www.w3.org/1999/xlink" x="0px" y="0px" viewBox="0 0 154.8 74.8"
	 style="enable-background:new 0 0 154.8 74.8;" xml:space="preserve">
<style type="text/css">
	.st0{fill:none;stroke:#005CB9;stroke-width:2.5;stroke-linejoin:round;stroke-miterlimit:10;}
</style>
<sodipodi:namedview  bordercolor="#666666" borderopacity="1" gridtolerance="10" guidetolerance="10" id="namedview16" inkscape:current-layer="svg2" inkscape:cx="77.385498" inkscape:cy="37.417" inkscape:pageopacity="0" inkscape:pageshadow="2" inkscape:window-height="837" inkscape:window-maximized="1" inkscape:window-width="1440" inkscape:window-x="-8" inkscape:window-y="-8" inkscape:zoom="2.4487792" objecttolerance="10" pagecolor="#ffffff" showgrid="false">
	</sodipodi:namedview>
<g id="g4">
	<path id="path6" class="st0" d="M38.5,23.6V60c0,2.7,2.2,4.9,5,4.9h8.2V18.7h-8.2C40.7,18.7,38.5,20.9,38.5,23.6z M111.3,18.7h-8
		V65h8c2.7,0,5-2.2,5-5V23.6C116.3,20.9,114,18.7,111.3,18.7z M88.6,9.9H66.1v8.8H56V65h42.9V18.7H88.6V9.9z"/>
	<path id="path8" class="st0" d="M89.3,57l-3.6-2.9l-4.4,1.3l1.7-4.3l-2.6-3.8l4.6,0.2l2.8-3.7l1.2,4.5l4.4,1.5l-3.9,2.5L89.3,57z"
		/>
	<path id="path10" class="st0" d="M72.8,28l16.1,2.2L88,36.9l-16.1-2.2L72.8,28z"/>
	<ellipse id="ellipse12" class="st0" cx="67.3" cy="46.7" rx="4.8" ry="4.5"/>
	<path id="path14" class="st0" d="M70.4,13.3h14v5.3h-14V13.3z"/>
</g>
</svg>
